<svg width="40" height="40" viewBox="0 0 40 40" fill="none" xmlns="http://www.w3.org/2000/svg">
    <circle cx="19.7768" cy="19.6352" r="19.6352" fill="#D76209"/>
    <path d="M21.6468 19.6352C32.7231 24.9603 27.0411 38.5946 19.7768 39.2704C8.97919 40.2748 0.141602 30.4794 0.141602 19.6352C0.141602 8.79097 8.93258 0 19.7768 0C30.621 0 5.46396 11.855 21.6468 19.6352Z" fill="#FF6E00"/>
    <rect x="18.5586" y="14.95" width="1.68246" height="11.9875" transform="rotate(-58.4117 18.5586 14.95)" fill="white"/>
    <rect x="19.764" y="14.395" width="0.315461" height="10.5154" rx="0.157731" transform="rotate(-58.4117 19.764 14.395)" fill="#E9E9E9"/>
    <rect x="16.5931" y="30.2236" width="1.68246" height="14.5502" transform="rotate(-114.087 16.5931 30.2236)" fill="white"/>
    <rect x="16.9581" y="28.851" width="0.315461" height="12.7633" rx="0.157731" transform="rotate(-114.087 16.9581 28.851)" fill="#E9E9E9"/>
    <circle cx="13.7959" cy="30.3349" r="2.97019" transform="rotate(-36.6803 13.7959 30.3349)" fill="white"/>
    <path d="M15.0882 28.1463C14.1376 27.5053 12.7127 27.8375 12.1191 28.0837C13.9587 27.7381 13.9403 29.1386 14.7387 29.6689C15.0619 29.8836 16.2763 28.9476 15.0882 28.1463Z" fill="#E6E6E6"/>
    <circle cx="31.951" cy="21.6418" r="3.75181" transform="rotate(94.8689 31.951 21.6418)" fill="white"/>
    <path d="M32.946 24.5932C34.3484 24.2317 35.2282 22.6064 35.4927 21.8389C34.2782 23.8675 32.9697 22.6768 31.7995 22.9872C31.3258 23.1129 31.1931 25.0451 32.946 24.5932Z" fill="#E6E6E6"/>
    <circle cx="16.0514" cy="11.0401" r="4.68977" fill="white"/>
    <path d="M20.0232 9.76443C19.3973 7.97933 17.1843 7.01452 16.1561 6.75525C18.931 8.11109 17.5264 9.94614 18.0601 11.4347C18.2762 12.0374 20.8057 11.9958 20.0232 9.76443Z" fill="#E6E6E6"/>
</svg>
